<mxfile host="app.diagrams.net" modified="2021-07-01T12:36:15.275Z" agent="5.0 (Macintosh; Intel Mac OS X 10_15_7) AppleWebKit/537.36 (KHTML, like Gecko) Chrome/91.0.4472.106 Safari/537.36 Edg/91.0.864.53" etag="b0xFSh4CcpgjdBYzv6HK" version="14.8.3" type="github">
  <diagram id="C5RBs43oDa-KdzZeNtuy" name="Page-1">
    <mxGraphModel dx="2125" dy="710" grid="1" gridSize="10" guides="1" tooltips="1" connect="1" arrows="1" fold="1" page="1" pageScale="1" pageWidth="827" pageHeight="1169" math="0" shadow="0">
      <root>
        <mxCell id="WIyWlLk6GJQsqaUBKTNV-0" />
        <mxCell id="WIyWlLk6GJQsqaUBKTNV-1" parent="WIyWlLk6GJQsqaUBKTNV-0" />
        <mxCell id="WIyWlLk6GJQsqaUBKTNV-2" value="" style="rounded=0;html=1;jettySize=auto;orthogonalLoop=1;fontSize=11;endArrow=block;endFill=0;endSize=8;strokeWidth=1;shadow=0;labelBackgroundColor=none;edgeStyle=orthogonalEdgeStyle;" parent="WIyWlLk6GJQsqaUBKTNV-1" source="WIyWlLk6GJQsqaUBKTNV-3" edge="1">
          <mxGeometry relative="1" as="geometry">
            <mxPoint x="220" y="190" as="targetPoint" />
          </mxGeometry>
        </mxCell>
        <mxCell id="WIyWlLk6GJQsqaUBKTNV-3" value="获取当前用户优先级user_priority" style="rounded=1;whiteSpace=wrap;html=1;fontSize=12;glass=0;strokeWidth=1;shadow=0;" parent="WIyWlLk6GJQsqaUBKTNV-1" vertex="1">
          <mxGeometry x="160" y="100" width="120" height="40" as="geometry" />
        </mxCell>
        <mxCell id="cVRdGZ0bKBzFC-XaW8SG-2" style="edgeStyle=orthogonalEdgeStyle;rounded=0;orthogonalLoop=1;jettySize=auto;html=1;exitX=0.5;exitY=1;exitDx=0;exitDy=0;entryX=0.5;entryY=0;entryDx=0;entryDy=0;" edge="1" parent="WIyWlLk6GJQsqaUBKTNV-1" source="cVRdGZ0bKBzFC-XaW8SG-1">
          <mxGeometry relative="1" as="geometry">
            <mxPoint x="220" y="290" as="targetPoint" />
          </mxGeometry>
        </mxCell>
        <mxCell id="cVRdGZ0bKBzFC-XaW8SG-1" value="计算出动态优先级&lt;br&gt;&lt;font style=&quot;font-size: 12px&quot;&gt;&lt;span style=&quot;color: rgb(22 , 22 , 22) ; font-family: &amp;#34;ibm plex sans&amp;#34; , &amp;#34;helvetica neue&amp;#34; , &amp;#34;arial&amp;#34; , sans-serif ; background-color: rgb(255 , 255 , 255)&quot;&gt;(&lt;/span&gt;&lt;var class=&quot;keyword varname&quot; style=&quot;box-sizing: border-box ; margin: 0px ; padding: 0px ; border: 0px ; font-stretch: inherit ; line-height: inherit ; font-family: &amp;#34;ibm plex mono&amp;#34; , &amp;#34;menlo&amp;#34; , &amp;#34;dejavu sans mono&amp;#34; , &amp;#34;bitstream vera sans mono&amp;#34; , &amp;#34;courier&amp;#34; , monospace ; vertical-align: baseline ; color: rgb(22 , 22 , 22) ; background-color: rgb(255 , 255 , 255)&quot;&gt;&lt;span style=&quot;font-style: normal&quot;&gt;cpu_time&lt;/span&gt;&amp;nbsp;&lt;/var&gt;&lt;span style=&quot;color: rgb(22 , 22 , 22) ; font-family: &amp;#34;ibm plex sans&amp;#34; , &amp;#34;helvetica neue&amp;#34; , &amp;#34;arial&amp;#34; , sans-serif ; background-color: rgb(255 , 255 , 255)&quot;&gt;*&amp;nbsp;&lt;/span&gt;&lt;span class=&quot;keyword parmname&quot; style=&quot;box-sizing: border-box ; margin: 0px ; padding: 0px ; border: 0px ; font-stretch: inherit ; line-height: inherit ; font-family: &amp;#34;ibm plex mono&amp;#34; , &amp;#34;menlo&amp;#34; , &amp;#34;dejavu sans mono&amp;#34; , &amp;#34;bitstream vera sans mono&amp;#34; , &amp;#34;courier&amp;#34; , monospace ; vertical-align: baseline ; color: rgb(22 , 22 , 22) ; background-color: rgb(255 , 255 , 255)&quot;&gt;CPU_TIME_FACTOR&lt;/span&gt;&lt;span style=&quot;color: rgb(22 , 22 , 22) ; font-family: &amp;#34;ibm plex sans&amp;#34; , &amp;#34;helvetica neue&amp;#34; , &amp;#34;arial&amp;#34; , sans-serif ; background-color: rgb(255 , 255 , 255)&quot;&gt;&amp;nbsp;+&amp;nbsp;&lt;/span&gt;&lt;var class=&quot;keyword varname&quot; style=&quot;box-sizing: border-box ; margin: 0px ; padding: 0px ; border: 0px ; font-stretch: inherit ; line-height: inherit ; font-family: &amp;#34;ibm plex mono&amp;#34; , &amp;#34;menlo&amp;#34; , &amp;#34;dejavu sans mono&amp;#34; , &amp;#34;bitstream vera sans mono&amp;#34; , &amp;#34;courier&amp;#34; , monospace ; vertical-align: baseline ; color: rgb(22 , 22 , 22) ; background-color: rgb(255 , 255 , 255)&quot;&gt;&lt;span style=&quot;font-style: normal&quot;&gt;run_time&lt;/span&gt;&amp;nbsp;&lt;/var&gt;&lt;span style=&quot;color: rgb(22 , 22 , 22) ; font-family: &amp;#34;ibm plex sans&amp;#34; , &amp;#34;helvetica neue&amp;#34; , &amp;#34;arial&amp;#34; , sans-serif ; background-color: rgb(255 , 255 , 255)&quot;&gt;*&amp;nbsp;&lt;/span&gt;&lt;span class=&quot;keyword parmname&quot; style=&quot;box-sizing: border-box ; margin: 0px ; padding: 0px ; border: 0px ; font-stretch: inherit ; line-height: inherit ; font-family: &amp;#34;ibm plex mono&amp;#34; , &amp;#34;menlo&amp;#34; , &amp;#34;dejavu sans mono&amp;#34; , &amp;#34;bitstream vera sans mono&amp;#34; , &amp;#34;courier&amp;#34; , monospace ; vertical-align: baseline ; color: rgb(22 , 22 , 22) ; background-color: rgb(255 , 255 , 255)&quot;&gt;RUN_TIME_FACTOR&lt;/span&gt;&lt;span style=&quot;color: rgb(22 , 22 , 22) ; font-family: &amp;#34;ibm plex sans&amp;#34; , &amp;#34;helvetica neue&amp;#34; , &amp;#34;arial&amp;#34; , sans-serif ; background-color: rgb(255 , 255 , 255)&quot;&gt;&amp;nbsp;+ (1 +&amp;nbsp;&lt;/span&gt;&lt;var class=&quot;keyword varname&quot; style=&quot;box-sizing: border-box ; margin: 0px ; padding: 0px ; border: 0px ; font-stretch: inherit ; line-height: inherit ; font-family: &amp;#34;ibm plex mono&amp;#34; , &amp;#34;menlo&amp;#34; , &amp;#34;dejavu sans mono&amp;#34; , &amp;#34;bitstream vera sans mono&amp;#34; , &amp;#34;courier&amp;#34; , monospace ; vertical-align: baseline ; color: rgb(22 , 22 , 22) ; background-color: rgb(255 , 255 , 255) ; font-style: normal&quot;&gt;job_slots&lt;/var&gt;&lt;span style=&quot;color: rgb(22 , 22 , 22) ; font-family: &amp;#34;ibm plex sans&amp;#34; , &amp;#34;helvetica neue&amp;#34; , &amp;#34;arial&amp;#34; , sans-serif ; background-color: rgb(255 , 255 , 255)&quot;&gt;)&lt;/span&gt;&lt;var class=&quot;keyword varname&quot; style=&quot;box-sizing: border-box ; margin: 0px ; padding: 0px ; border: 0px ; font-stretch: inherit ; line-height: inherit ; font-family: &amp;#34;ibm plex mono&amp;#34; , &amp;#34;menlo&amp;#34; , &amp;#34;dejavu sans mono&amp;#34; , &amp;#34;bitstream vera sans mono&amp;#34; , &amp;#34;courier&amp;#34; , monospace ; vertical-align: baseline ; color: rgb(22 , 22 , 22) ; background-color: rgb(255 , 255 , 255)&quot;&gt;&amp;nbsp;&lt;/var&gt;&lt;span style=&quot;color: rgb(22 , 22 , 22) ; font-family: &amp;#34;ibm plex sans&amp;#34; , &amp;#34;helvetica neue&amp;#34; , &amp;#34;arial&amp;#34; , sans-serif ; background-color: rgb(255 , 255 , 255)&quot;&gt;*&amp;nbsp;&lt;/span&gt;&lt;span class=&quot;keyword parmname&quot; style=&quot;box-sizing: border-box ; margin: 0px ; padding: 0px ; border: 0px ; font-stretch: inherit ; line-height: inherit ; font-family: &amp;#34;ibm plex mono&amp;#34; , &amp;#34;menlo&amp;#34; , &amp;#34;dejavu sans mono&amp;#34; , &amp;#34;bitstream vera sans mono&amp;#34; , &amp;#34;courier&amp;#34; , monospace ; vertical-align: baseline ; color: rgb(22 , 22 , 22) ; background-color: rgb(255 , 255 , 255)&quot;&gt;RUN_JOB_FACTOR&lt;/span&gt;&lt;span style=&quot;color: rgb(22 , 22 , 22) ; font-family: &amp;#34;ibm plex sans&amp;#34; , &amp;#34;helvetica neue&amp;#34; , &amp;#34;arial&amp;#34; , sans-serif ; background-color: rgb(255 , 255 , 255)&quot;&gt;&amp;nbsp;&lt;/span&gt;&lt;span class=&quot;ph&quot; style=&quot;box-sizing: border-box ; margin: 0px ; padding: 0px ; border: 0px ; font-stretch: inherit ; line-height: inherit ; font-family: &amp;#34;ibm plex sans&amp;#34; , &amp;#34;helvetica neue&amp;#34; , &amp;#34;arial&amp;#34; , sans-serif ; vertical-align: baseline ; color: rgb(22 , 22 , 22) ; background-color: rgb(255 , 255 , 255)&quot;&gt;+ (1 +&amp;nbsp;&lt;var class=&quot;keyword varname&quot; style=&quot;box-sizing: border-box ; margin: 0px ; padding: 0px ; border: 0px ; font-variant: inherit ; font-stretch: inherit ; line-height: inherit ; font-family: &amp;#34;ibm plex mono&amp;#34; , &amp;#34;menlo&amp;#34; , &amp;#34;dejavu sans mono&amp;#34; , &amp;#34;bitstream vera sans mono&amp;#34; , &amp;#34;courier&amp;#34; , monospace ; vertical-align: baseline ; font-style: normal&quot;&gt;fwd_job_slots&lt;/var&gt;)&lt;var class=&quot;keyword varname&quot; style=&quot;box-sizing: border-box ; margin: 0px ; padding: 0px ; border: 0px ; font-variant: inherit ; font-stretch: inherit ; line-height: inherit ; font-family: &amp;#34;ibm plex mono&amp;#34; , &amp;#34;menlo&amp;#34; , &amp;#34;dejavu sans mono&amp;#34; , &amp;#34;bitstream vera sans mono&amp;#34; , &amp;#34;courier&amp;#34; , monospace ; vertical-align: baseline&quot;&gt;&amp;nbsp;&lt;/var&gt;*&amp;nbsp;&lt;span class=&quot;keyword parmname&quot; style=&quot;box-sizing: border-box ; margin: 0px ; padding: 0px ; border: 0px ; font-variant: inherit ; font-stretch: inherit ; line-height: inherit ; font-family: &amp;#34;ibm plex mono&amp;#34; , &amp;#34;menlo&amp;#34; , &amp;#34;dejavu sans mono&amp;#34; , &amp;#34;bitstream vera sans mono&amp;#34; , &amp;#34;courier&amp;#34; , monospace ; vertical-align: baseline&quot;&gt;FWD_JOB_FACTOR&lt;/span&gt;&lt;/span&gt;&lt;span style=&quot;color: rgb(22 , 22 , 22) ; font-family: &amp;#34;ibm plex sans&amp;#34; , &amp;#34;helvetica neue&amp;#34; , &amp;#34;arial&amp;#34; , sans-serif ; background-color: rgb(255 , 255 , 255)&quot;&gt;&amp;nbsp;+&amp;nbsp;&lt;/span&gt;&lt;var class=&quot;keyword varname&quot; style=&quot;box-sizing: border-box ; margin: 0px ; padding: 0px ; border: 0px ; font-stretch: inherit ; line-height: inherit ; font-family: &amp;#34;ibm plex mono&amp;#34; , &amp;#34;menlo&amp;#34; , &amp;#34;dejavu sans mono&amp;#34; , &amp;#34;bitstream vera sans mono&amp;#34; , &amp;#34;courier&amp;#34; , monospace ; vertical-align: baseline ; color: rgb(22 , 22 , 22) ; background-color: rgb(255 , 255 , 255) ; font-style: normal&quot;&gt;fairshare_adjustment&lt;/var&gt;&lt;span style=&quot;color: rgb(22 , 22 , 22) ; font-family: &amp;#34;ibm plex sans&amp;#34; , &amp;#34;helvetica neue&amp;#34; , &amp;#34;arial&amp;#34; , sans-serif ; background-color: rgb(255 , 255 , 255)&quot;&gt;*&lt;/span&gt;&lt;span class=&quot;keyword parmname&quot; style=&quot;box-sizing: border-box ; margin: 0px ; padding: 0px ; border: 0px ; font-stretch: inherit ; line-height: inherit ; font-family: &amp;#34;ibm plex mono&amp;#34; , &amp;#34;menlo&amp;#34; , &amp;#34;dejavu sans mono&amp;#34; , &amp;#34;bitstream vera sans mono&amp;#34; , &amp;#34;courier&amp;#34; , monospace ; vertical-align: baseline ; color: rgb(22 , 22 , 22) ; background-color: rgb(255 , 255 , 255)&quot;&gt;FAIRSHARE_ADJUSTMENT_FACTOR&lt;/span&gt;&lt;span style=&quot;color: rgb(22 , 22 , 22) ; font-family: &amp;#34;ibm plex sans&amp;#34; , &amp;#34;helvetica neue&amp;#34; , &amp;#34;arial&amp;#34; , sans-serif ; background-color: rgb(255 , 255 , 255)&quot;&gt;)&amp;nbsp;&lt;/span&gt;&lt;/font&gt;" style="rounded=1;whiteSpace=wrap;html=1;" vertex="1" parent="WIyWlLk6GJQsqaUBKTNV-1">
          <mxGeometry x="-95" y="190" width="630" height="70" as="geometry" />
        </mxCell>
        <mxCell id="cVRdGZ0bKBzFC-XaW8SG-3" value="查询当前用户权限下的可用设备，优先选择对用户权限要求最高的设备" style="rounded=1;whiteSpace=wrap;html=1;" vertex="1" parent="WIyWlLk6GJQsqaUBKTNV-1">
          <mxGeometry x="160" y="290" width="120" height="60" as="geometry" />
        </mxCell>
      </root>
    </mxGraphModel>
  </diagram>
</mxfile>
